%TF.GenerationSoftware,KiCad,Pcbnew,(6.0.4)*%
%TF.CreationDate,2022-05-23T21:32:27+01:00*%
%TF.ProjectId,nRF24BB,6e524632-3442-4422-9e6b-696361645f70,1.0*%
%TF.SameCoordinates,Original*%
%TF.FileFunction,Legend,Top*%
%TF.FilePolarity,Positive*%
%FSLAX46Y46*%
G04 Gerber Fmt 4.6, Leading zero omitted, Abs format (unit mm)*
G04 Created by KiCad (PCBNEW (6.0.4)) date 2022-05-23 21:32:27*
%MOMM*%
%LPD*%
G01*
G04 APERTURE LIST*
%ADD10C,0.125000*%
%ADD11C,0.250000*%
%ADD12C,0.150000*%
%ADD13C,0.120000*%
G04 APERTURE END LIST*
D10*
X164960428Y-86683809D02*
X165074714Y-86721904D01*
X165265190Y-86721904D01*
X165341380Y-86683809D01*
X165379476Y-86645714D01*
X165417571Y-86569523D01*
X165417571Y-86493333D01*
X165379476Y-86417142D01*
X165341380Y-86379047D01*
X165265190Y-86340952D01*
X165112809Y-86302857D01*
X165036619Y-86264761D01*
X164998523Y-86226666D01*
X164960428Y-86150476D01*
X164960428Y-86074285D01*
X164998523Y-85998095D01*
X165036619Y-85960000D01*
X165112809Y-85921904D01*
X165303285Y-85921904D01*
X165417571Y-85960000D01*
X166217571Y-86645714D02*
X166179476Y-86683809D01*
X166065190Y-86721904D01*
X165989000Y-86721904D01*
X165874714Y-86683809D01*
X165798523Y-86607619D01*
X165760428Y-86531428D01*
X165722333Y-86379047D01*
X165722333Y-86264761D01*
X165760428Y-86112380D01*
X165798523Y-86036190D01*
X165874714Y-85960000D01*
X165989000Y-85921904D01*
X166065190Y-85921904D01*
X166179476Y-85960000D01*
X166217571Y-85998095D01*
X166560428Y-86721904D02*
X166560428Y-85921904D01*
X167017571Y-86721904D02*
X166674714Y-86264761D01*
X167017571Y-85921904D02*
X166560428Y-86379047D01*
X164922333Y-98875904D02*
X165189000Y-99675904D01*
X165455666Y-98875904D01*
X166179476Y-99599714D02*
X166141380Y-99637809D01*
X166027095Y-99675904D01*
X165950904Y-99675904D01*
X165836619Y-99637809D01*
X165760428Y-99561619D01*
X165722333Y-99485428D01*
X165684238Y-99333047D01*
X165684238Y-99218761D01*
X165722333Y-99066380D01*
X165760428Y-98990190D01*
X165836619Y-98914000D01*
X165950904Y-98875904D01*
X166027095Y-98875904D01*
X166141380Y-98914000D01*
X166179476Y-98952095D01*
X166979476Y-99599714D02*
X166941380Y-99637809D01*
X166827095Y-99675904D01*
X166750904Y-99675904D01*
X166636619Y-99637809D01*
X166560428Y-99561619D01*
X166522333Y-99485428D01*
X166484238Y-99333047D01*
X166484238Y-99218761D01*
X166522333Y-99066380D01*
X166560428Y-98990190D01*
X166636619Y-98914000D01*
X166750904Y-98875904D01*
X166827095Y-98875904D01*
X166941380Y-98914000D01*
X166979476Y-98952095D01*
X164858857Y-94214904D02*
X164858857Y-93414904D01*
X165125523Y-93986333D01*
X165392190Y-93414904D01*
X165392190Y-94214904D01*
X165925523Y-93414904D02*
X166077904Y-93414904D01*
X166154095Y-93453000D01*
X166230285Y-93529190D01*
X166268380Y-93681571D01*
X166268380Y-93948238D01*
X166230285Y-94100619D01*
X166154095Y-94176809D01*
X166077904Y-94214904D01*
X165925523Y-94214904D01*
X165849333Y-94176809D01*
X165773142Y-94100619D01*
X165735047Y-93948238D01*
X165735047Y-93681571D01*
X165773142Y-93529190D01*
X165849333Y-93453000D01*
X165925523Y-93414904D01*
X166573142Y-94176809D02*
X166687428Y-94214904D01*
X166877904Y-94214904D01*
X166954095Y-94176809D01*
X166992190Y-94138714D01*
X167030285Y-94062523D01*
X167030285Y-93986333D01*
X166992190Y-93910142D01*
X166954095Y-93872047D01*
X166877904Y-93833952D01*
X166725523Y-93795857D01*
X166649333Y-93757761D01*
X166611238Y-93719666D01*
X166573142Y-93643476D01*
X166573142Y-93567285D01*
X166611238Y-93491095D01*
X166649333Y-93453000D01*
X166725523Y-93414904D01*
X166916000Y-93414904D01*
X167030285Y-93453000D01*
X167373142Y-94214904D02*
X167373142Y-93414904D01*
X165277876Y-81438800D02*
X165201685Y-81400704D01*
X165087400Y-81400704D01*
X164973114Y-81438800D01*
X164896923Y-81514990D01*
X164858828Y-81591180D01*
X164820733Y-81743561D01*
X164820733Y-81857847D01*
X164858828Y-82010228D01*
X164896923Y-82086419D01*
X164973114Y-82162609D01*
X165087400Y-82200704D01*
X165163590Y-82200704D01*
X165277876Y-82162609D01*
X165315971Y-82124514D01*
X165315971Y-81857847D01*
X165163590Y-81857847D01*
X165658828Y-82200704D02*
X165658828Y-81400704D01*
X166115971Y-82200704D01*
X166115971Y-81400704D01*
X166496923Y-82200704D02*
X166496923Y-81400704D01*
X166687400Y-81400704D01*
X166801685Y-81438800D01*
X166877876Y-81514990D01*
X166915971Y-81591180D01*
X166954066Y-81743561D01*
X166954066Y-81857847D01*
X166915971Y-82010228D01*
X166877876Y-82086419D01*
X166801685Y-82162609D01*
X166687400Y-82200704D01*
X166496923Y-82200704D01*
D11*
X132130990Y-104201980D02*
X132464323Y-105201980D01*
X132797657Y-104201980D01*
X133654800Y-105201980D02*
X133083371Y-105201980D01*
X133369085Y-105201980D02*
X133369085Y-104201980D01*
X133273847Y-104344838D01*
X133178609Y-104440076D01*
X133083371Y-104487695D01*
X134083371Y-105106742D02*
X134130990Y-105154361D01*
X134083371Y-105201980D01*
X134035752Y-105154361D01*
X134083371Y-105106742D01*
X134083371Y-105201980D01*
X134750038Y-104201980D02*
X134845276Y-104201980D01*
X134940514Y-104249600D01*
X134988133Y-104297219D01*
X135035752Y-104392457D01*
X135083371Y-104582933D01*
X135083371Y-104821028D01*
X135035752Y-105011504D01*
X134988133Y-105106742D01*
X134940514Y-105154361D01*
X134845276Y-105201980D01*
X134750038Y-105201980D01*
X134654800Y-105154361D01*
X134607180Y-105106742D01*
X134559561Y-105011504D01*
X134511942Y-104821028D01*
X134511942Y-104582933D01*
X134559561Y-104392457D01*
X134607180Y-104297219D01*
X134654800Y-104249600D01*
X134750038Y-104201980D01*
D10*
X165874714Y-84232714D02*
X165836619Y-84270809D01*
X165722333Y-84308904D01*
X165646142Y-84308904D01*
X165531857Y-84270809D01*
X165455666Y-84194619D01*
X165417571Y-84118428D01*
X165379476Y-83966047D01*
X165379476Y-83851761D01*
X165417571Y-83699380D01*
X165455666Y-83623190D01*
X165531857Y-83547000D01*
X165646142Y-83508904D01*
X165722333Y-83508904D01*
X165836619Y-83547000D01*
X165874714Y-83585095D01*
X166217571Y-83889857D02*
X166484238Y-83889857D01*
X166598523Y-84308904D02*
X166217571Y-84308904D01*
X166217571Y-83508904D01*
X166598523Y-83508904D01*
X165563619Y-96805714D02*
X165525523Y-96843809D01*
X165411238Y-96881904D01*
X165335047Y-96881904D01*
X165220761Y-96843809D01*
X165144571Y-96767619D01*
X165106476Y-96691428D01*
X165068380Y-96539047D01*
X165068380Y-96424761D01*
X165106476Y-96272380D01*
X165144571Y-96196190D01*
X165220761Y-96120000D01*
X165335047Y-96081904D01*
X165411238Y-96081904D01*
X165525523Y-96120000D01*
X165563619Y-96158095D01*
X165868380Y-96843809D02*
X165982666Y-96881904D01*
X166173142Y-96881904D01*
X166249333Y-96843809D01*
X166287428Y-96805714D01*
X166325523Y-96729523D01*
X166325523Y-96653333D01*
X166287428Y-96577142D01*
X166249333Y-96539047D01*
X166173142Y-96500952D01*
X166020761Y-96462857D01*
X165944571Y-96424761D01*
X165906476Y-96386666D01*
X165868380Y-96310476D01*
X165868380Y-96234285D01*
X165906476Y-96158095D01*
X165944571Y-96120000D01*
X166020761Y-96081904D01*
X166211238Y-96081904D01*
X166325523Y-96120000D01*
X166668380Y-96881904D02*
X166668380Y-96081904D01*
X167125523Y-96881904D01*
X167125523Y-96081904D01*
X164731857Y-89261904D02*
X164731857Y-88461904D01*
X164998523Y-89033333D01*
X165265190Y-88461904D01*
X165265190Y-89261904D01*
X165646142Y-89261904D02*
X165646142Y-88461904D01*
X165989000Y-89223809D02*
X166103285Y-89261904D01*
X166293761Y-89261904D01*
X166369952Y-89223809D01*
X166408047Y-89185714D01*
X166446142Y-89109523D01*
X166446142Y-89033333D01*
X166408047Y-88957142D01*
X166369952Y-88919047D01*
X166293761Y-88880952D01*
X166141380Y-88842857D01*
X166065190Y-88804761D01*
X166027095Y-88766666D01*
X165989000Y-88690476D01*
X165989000Y-88614285D01*
X166027095Y-88538095D01*
X166065190Y-88500000D01*
X166141380Y-88461904D01*
X166331857Y-88461904D01*
X166446142Y-88500000D01*
X166941380Y-88461904D02*
X167093761Y-88461904D01*
X167169952Y-88500000D01*
X167246142Y-88576190D01*
X167284238Y-88728571D01*
X167284238Y-88995238D01*
X167246142Y-89147619D01*
X167169952Y-89223809D01*
X167093761Y-89261904D01*
X166941380Y-89261904D01*
X166865190Y-89223809D01*
X166789000Y-89147619D01*
X166750904Y-88995238D01*
X166750904Y-88728571D01*
X166789000Y-88576190D01*
X166865190Y-88500000D01*
X166941380Y-88461904D01*
X165316000Y-91801904D02*
X165316000Y-91001904D01*
X166154095Y-91801904D02*
X165887428Y-91420952D01*
X165696952Y-91801904D02*
X165696952Y-91001904D01*
X166001714Y-91001904D01*
X166077904Y-91040000D01*
X166116000Y-91078095D01*
X166154095Y-91154285D01*
X166154095Y-91268571D01*
X166116000Y-91344761D01*
X166077904Y-91382857D01*
X166001714Y-91420952D01*
X165696952Y-91420952D01*
X166916000Y-91040000D02*
X166839809Y-91001904D01*
X166725523Y-91001904D01*
X166611238Y-91040000D01*
X166535047Y-91116190D01*
X166496952Y-91192380D01*
X166458857Y-91344761D01*
X166458857Y-91459047D01*
X166496952Y-91611428D01*
X166535047Y-91687619D01*
X166611238Y-91763809D01*
X166725523Y-91801904D01*
X166801714Y-91801904D01*
X166916000Y-91763809D01*
X166954095Y-91725714D01*
X166954095Y-91459047D01*
X166801714Y-91459047D01*
D12*
%TO.C,C1*%
X159091333Y-104293942D02*
X159043714Y-104341561D01*
X158900857Y-104389180D01*
X158805619Y-104389180D01*
X158662761Y-104341561D01*
X158567523Y-104246323D01*
X158519904Y-104151085D01*
X158472285Y-103960609D01*
X158472285Y-103817752D01*
X158519904Y-103627276D01*
X158567523Y-103532038D01*
X158662761Y-103436800D01*
X158805619Y-103389180D01*
X158900857Y-103389180D01*
X159043714Y-103436800D01*
X159091333Y-103484419D01*
X160043714Y-104389180D02*
X159472285Y-104389180D01*
X159758000Y-104389180D02*
X159758000Y-103389180D01*
X159662761Y-103532038D01*
X159567523Y-103627276D01*
X159472285Y-103674895D01*
%TO.C,U1*%
X143306895Y-96632780D02*
X143306895Y-97442304D01*
X143354514Y-97537542D01*
X143402133Y-97585161D01*
X143497371Y-97632780D01*
X143687847Y-97632780D01*
X143783085Y-97585161D01*
X143830704Y-97537542D01*
X143878323Y-97442304D01*
X143878323Y-96632780D01*
X144878323Y-97632780D02*
X144306895Y-97632780D01*
X144592609Y-97632780D02*
X144592609Y-96632780D01*
X144497371Y-96775638D01*
X144402133Y-96870876D01*
X144306895Y-96918495D01*
X143573761Y-88177714D02*
X143573761Y-88844380D01*
X143573761Y-88272952D02*
X143621380Y-88225333D01*
X143716619Y-88177714D01*
X143859476Y-88177714D01*
X143954714Y-88225333D01*
X144002333Y-88320571D01*
X144002333Y-88844380D01*
X145049952Y-88844380D02*
X144716619Y-88368190D01*
X144478523Y-88844380D02*
X144478523Y-87844380D01*
X144859476Y-87844380D01*
X144954714Y-87892000D01*
X145002333Y-87939619D01*
X145049952Y-88034857D01*
X145049952Y-88177714D01*
X145002333Y-88272952D01*
X144954714Y-88320571D01*
X144859476Y-88368190D01*
X144478523Y-88368190D01*
X145811857Y-88320571D02*
X145478523Y-88320571D01*
X145478523Y-88844380D02*
X145478523Y-87844380D01*
X145954714Y-87844380D01*
X146288047Y-87939619D02*
X146335666Y-87892000D01*
X146430904Y-87844380D01*
X146669000Y-87844380D01*
X146764238Y-87892000D01*
X146811857Y-87939619D01*
X146859476Y-88034857D01*
X146859476Y-88130095D01*
X146811857Y-88272952D01*
X146240428Y-88844380D01*
X146859476Y-88844380D01*
X147716619Y-88177714D02*
X147716619Y-88844380D01*
X147478523Y-87796761D02*
X147240428Y-88511047D01*
X147859476Y-88511047D01*
D10*
X161111380Y-89669857D02*
X161135190Y-89598428D01*
X161135190Y-89479380D01*
X161111380Y-89431761D01*
X161087571Y-89407952D01*
X161039952Y-89384142D01*
X160992333Y-89384142D01*
X160944714Y-89407952D01*
X160920904Y-89431761D01*
X160897095Y-89479380D01*
X160873285Y-89574619D01*
X160849476Y-89622238D01*
X160825666Y-89646047D01*
X160778047Y-89669857D01*
X160730428Y-89669857D01*
X160682809Y-89646047D01*
X160659000Y-89622238D01*
X160635190Y-89574619D01*
X160635190Y-89455571D01*
X160659000Y-89384142D01*
X161087571Y-88884142D02*
X161111380Y-88907952D01*
X161135190Y-88979380D01*
X161135190Y-89027000D01*
X161111380Y-89098428D01*
X161063761Y-89146047D01*
X161016142Y-89169857D01*
X160920904Y-89193666D01*
X160849476Y-89193666D01*
X160754238Y-89169857D01*
X160706619Y-89146047D01*
X160659000Y-89098428D01*
X160635190Y-89027000D01*
X160635190Y-88979380D01*
X160659000Y-88907952D01*
X160682809Y-88884142D01*
X161135190Y-88669857D02*
X160635190Y-88669857D01*
X161135190Y-88384142D02*
X160849476Y-88598428D01*
X160635190Y-88384142D02*
X160920904Y-88669857D01*
X155892190Y-89926714D02*
X155392190Y-89926714D01*
X155749333Y-89760047D01*
X155392190Y-89593380D01*
X155892190Y-89593380D01*
X155392190Y-89260047D02*
X155392190Y-89164809D01*
X155416000Y-89117190D01*
X155463619Y-89069571D01*
X155558857Y-89045761D01*
X155725523Y-89045761D01*
X155820761Y-89069571D01*
X155868380Y-89117190D01*
X155892190Y-89164809D01*
X155892190Y-89260047D01*
X155868380Y-89307666D01*
X155820761Y-89355285D01*
X155725523Y-89379095D01*
X155558857Y-89379095D01*
X155463619Y-89355285D01*
X155416000Y-89307666D01*
X155392190Y-89260047D01*
X155868380Y-88855285D02*
X155892190Y-88783857D01*
X155892190Y-88664809D01*
X155868380Y-88617190D01*
X155844571Y-88593380D01*
X155796952Y-88569571D01*
X155749333Y-88569571D01*
X155701714Y-88593380D01*
X155677904Y-88617190D01*
X155654095Y-88664809D01*
X155630285Y-88760047D01*
X155606476Y-88807666D01*
X155582666Y-88831476D01*
X155535047Y-88855285D01*
X155487428Y-88855285D01*
X155439809Y-88831476D01*
X155416000Y-88807666D01*
X155392190Y-88760047D01*
X155392190Y-88641000D01*
X155416000Y-88569571D01*
X155892190Y-88355285D02*
X155392190Y-88355285D01*
X155892190Y-86985904D02*
X155392190Y-86985904D01*
X155892190Y-86462095D02*
X155654095Y-86628761D01*
X155892190Y-86747809D02*
X155392190Y-86747809D01*
X155392190Y-86557333D01*
X155416000Y-86509714D01*
X155439809Y-86485904D01*
X155487428Y-86462095D01*
X155558857Y-86462095D01*
X155606476Y-86485904D01*
X155630285Y-86509714D01*
X155654095Y-86557333D01*
X155654095Y-86747809D01*
X155939809Y-85914476D02*
X155916000Y-85962095D01*
X155868380Y-86009714D01*
X155796952Y-86081142D01*
X155773142Y-86128761D01*
X155773142Y-86176380D01*
X155892190Y-86152571D02*
X155868380Y-86200190D01*
X155820761Y-86247809D01*
X155725523Y-86271619D01*
X155558857Y-86271619D01*
X155463619Y-86247809D01*
X155416000Y-86200190D01*
X155392190Y-86152571D01*
X155392190Y-86057333D01*
X155416000Y-86009714D01*
X155463619Y-85962095D01*
X155558857Y-85938285D01*
X155725523Y-85938285D01*
X155820761Y-85962095D01*
X155868380Y-86009714D01*
X155892190Y-86057333D01*
X155892190Y-86152571D01*
X160659000Y-94487952D02*
X160635190Y-94535571D01*
X160635190Y-94607000D01*
X160659000Y-94678428D01*
X160706619Y-94726047D01*
X160754238Y-94749857D01*
X160849476Y-94773666D01*
X160920904Y-94773666D01*
X161016142Y-94749857D01*
X161063761Y-94726047D01*
X161111380Y-94678428D01*
X161135190Y-94607000D01*
X161135190Y-94559380D01*
X161111380Y-94487952D01*
X161087571Y-94464142D01*
X160920904Y-94464142D01*
X160920904Y-94559380D01*
X161135190Y-94249857D02*
X160635190Y-94249857D01*
X161135190Y-93964142D01*
X160635190Y-93964142D01*
X161135190Y-93726047D02*
X160635190Y-93726047D01*
X160635190Y-93607000D01*
X160659000Y-93535571D01*
X160706619Y-93487952D01*
X160754238Y-93464142D01*
X160849476Y-93440333D01*
X160920904Y-93440333D01*
X161016142Y-93464142D01*
X161063761Y-93487952D01*
X161111380Y-93535571D01*
X161135190Y-93607000D01*
X161135190Y-93726047D01*
X161087571Y-91638428D02*
X161111380Y-91662238D01*
X161135190Y-91733666D01*
X161135190Y-91781285D01*
X161111380Y-91852714D01*
X161063761Y-91900333D01*
X161016142Y-91924142D01*
X160920904Y-91947952D01*
X160849476Y-91947952D01*
X160754238Y-91924142D01*
X160706619Y-91900333D01*
X160659000Y-91852714D01*
X160635190Y-91781285D01*
X160635190Y-91733666D01*
X160659000Y-91662238D01*
X160682809Y-91638428D01*
X160873285Y-91424142D02*
X160873285Y-91257476D01*
X161135190Y-91186047D02*
X161135190Y-91424142D01*
X160635190Y-91424142D01*
X160635190Y-91186047D01*
X155844571Y-91912238D02*
X155868380Y-91936047D01*
X155892190Y-92007476D01*
X155892190Y-92055095D01*
X155868380Y-92126523D01*
X155820761Y-92174142D01*
X155773142Y-92197952D01*
X155677904Y-92221761D01*
X155606476Y-92221761D01*
X155511238Y-92197952D01*
X155463619Y-92174142D01*
X155416000Y-92126523D01*
X155392190Y-92055095D01*
X155392190Y-92007476D01*
X155416000Y-91936047D01*
X155439809Y-91912238D01*
X155868380Y-91721761D02*
X155892190Y-91650333D01*
X155892190Y-91531285D01*
X155868380Y-91483666D01*
X155844571Y-91459857D01*
X155796952Y-91436047D01*
X155749333Y-91436047D01*
X155701714Y-91459857D01*
X155677904Y-91483666D01*
X155654095Y-91531285D01*
X155630285Y-91626523D01*
X155606476Y-91674142D01*
X155582666Y-91697952D01*
X155535047Y-91721761D01*
X155487428Y-91721761D01*
X155439809Y-91697952D01*
X155416000Y-91674142D01*
X155392190Y-91626523D01*
X155392190Y-91507476D01*
X155416000Y-91436047D01*
X155892190Y-91221761D02*
X155392190Y-91221761D01*
X155892190Y-90936047D01*
X155392190Y-90936047D01*
X155392190Y-94773666D02*
X155892190Y-94607000D01*
X155392190Y-94440333D01*
X155844571Y-93987952D02*
X155868380Y-94011761D01*
X155892190Y-94083190D01*
X155892190Y-94130809D01*
X155868380Y-94202238D01*
X155820761Y-94249857D01*
X155773142Y-94273666D01*
X155677904Y-94297476D01*
X155606476Y-94297476D01*
X155511238Y-94273666D01*
X155463619Y-94249857D01*
X155416000Y-94202238D01*
X155392190Y-94130809D01*
X155392190Y-94083190D01*
X155416000Y-94011761D01*
X155439809Y-93987952D01*
X155844571Y-93487952D02*
X155868380Y-93511761D01*
X155892190Y-93583190D01*
X155892190Y-93630809D01*
X155868380Y-93702238D01*
X155820761Y-93749857D01*
X155773142Y-93773666D01*
X155677904Y-93797476D01*
X155606476Y-93797476D01*
X155511238Y-93773666D01*
X155463619Y-93749857D01*
X155416000Y-93702238D01*
X155392190Y-93630809D01*
X155392190Y-93583190D01*
X155416000Y-93511761D01*
X155439809Y-93487952D01*
X161135190Y-87272714D02*
X160635190Y-87272714D01*
X160992333Y-87106047D01*
X160635190Y-86939380D01*
X161135190Y-86939380D01*
X161135190Y-86701285D02*
X160635190Y-86701285D01*
X161111380Y-86487000D02*
X161135190Y-86415571D01*
X161135190Y-86296523D01*
X161111380Y-86248904D01*
X161087571Y-86225095D01*
X161039952Y-86201285D01*
X160992333Y-86201285D01*
X160944714Y-86225095D01*
X160920904Y-86248904D01*
X160897095Y-86296523D01*
X160873285Y-86391761D01*
X160849476Y-86439380D01*
X160825666Y-86463190D01*
X160778047Y-86487000D01*
X160730428Y-86487000D01*
X160682809Y-86463190D01*
X160659000Y-86439380D01*
X160635190Y-86391761D01*
X160635190Y-86272714D01*
X160659000Y-86201285D01*
X160635190Y-85891761D02*
X160635190Y-85796523D01*
X160659000Y-85748904D01*
X160706619Y-85701285D01*
X160801857Y-85677476D01*
X160968523Y-85677476D01*
X161063761Y-85701285D01*
X161111380Y-85748904D01*
X161135190Y-85796523D01*
X161135190Y-85891761D01*
X161111380Y-85939380D01*
X161063761Y-85987000D01*
X160968523Y-86010809D01*
X160801857Y-86010809D01*
X160706619Y-85987000D01*
X160659000Y-85939380D01*
X160635190Y-85891761D01*
D13*
%TO.C,C1*%
X150244477Y-100460600D02*
X150244477Y-97117600D01*
X150444477Y-100460600D02*
X150444477Y-97027600D01*
X149764477Y-106024600D02*
X149764477Y-102942600D01*
X148284477Y-104646600D02*
X148284477Y-98756600D01*
X151204477Y-106629600D02*
X151204477Y-96773600D01*
X152285477Y-106779600D02*
X152285477Y-96623600D01*
X148844477Y-100460600D02*
X148844477Y-98100600D01*
X151324477Y-106657600D02*
X151324477Y-96745600D01*
X149164477Y-100460600D02*
X149164477Y-97809600D01*
X149564477Y-105895600D02*
X149564477Y-102942600D01*
X149884477Y-106096600D02*
X149884477Y-102942600D01*
X147684477Y-103547600D02*
X147684477Y-99855600D01*
X147724477Y-103645600D02*
X147724477Y-99757600D01*
X147524477Y-103079600D02*
X147524477Y-100323600D01*
X149604477Y-100460600D02*
X149604477Y-97480600D01*
X151765477Y-106736600D02*
X151765477Y-96666600D01*
X149484477Y-100460600D02*
X149484477Y-97563600D01*
X149044477Y-105490600D02*
X149044477Y-102942600D01*
X149764477Y-100460600D02*
X149764477Y-97378600D01*
X149004477Y-100460600D02*
X149004477Y-97948600D01*
X149324477Y-100460600D02*
X149324477Y-97681600D01*
X148164477Y-104471600D02*
X148164477Y-98931600D01*
X150404477Y-100460600D02*
X150404477Y-97044600D01*
X150964477Y-100460600D02*
X150964477Y-96839600D01*
X147404477Y-102563600D02*
X147404477Y-100839600D01*
X149644477Y-100460600D02*
X149644477Y-97454600D01*
X151604477Y-106712600D02*
X151604477Y-96690600D01*
X151564477Y-106705600D02*
X151564477Y-96697600D01*
X151004477Y-106575600D02*
X151004477Y-102942600D01*
X150604477Y-100460600D02*
X150604477Y-96963600D01*
X148724477Y-105179600D02*
X148724477Y-102942600D01*
X152005477Y-106763600D02*
X152005477Y-96639600D01*
X147364477Y-102300600D02*
X147364477Y-101102600D01*
X149444477Y-105811600D02*
X149444477Y-102942600D01*
X151124477Y-100460600D02*
X151124477Y-96794600D01*
X149324477Y-105721600D02*
X149324477Y-102942600D01*
X147964477Y-104140600D02*
X147964477Y-99262600D01*
X148564477Y-105002600D02*
X148564477Y-98400600D01*
X150004477Y-106163600D02*
X150004477Y-102942600D01*
X150404477Y-106358600D02*
X150404477Y-102942600D01*
X151805477Y-106741600D02*
X151805477Y-96661600D01*
X151484477Y-106691600D02*
X151484477Y-96711600D01*
X149604477Y-105922600D02*
X149604477Y-102942600D01*
X150324477Y-106322600D02*
X150324477Y-102942600D01*
X148764477Y-100460600D02*
X148764477Y-98181600D01*
X149964477Y-106141600D02*
X149964477Y-102942600D01*
X148524477Y-104955600D02*
X148524477Y-98447600D01*
X147924477Y-104066600D02*
X147924477Y-99336600D01*
X150084477Y-100460600D02*
X150084477Y-97197600D01*
X152165477Y-106774600D02*
X152165477Y-96628600D01*
X147484477Y-102931600D02*
X147484477Y-100471600D01*
X150124477Y-100460600D02*
X150124477Y-97176600D01*
X157925123Y-104576600D02*
X156925123Y-104576600D01*
X150124477Y-106226600D02*
X150124477Y-102942600D01*
X149004477Y-105454600D02*
X149004477Y-102942600D01*
X150484477Y-100460600D02*
X150484477Y-97011600D01*
X149724477Y-105999600D02*
X149724477Y-102942600D01*
X150684477Y-106469600D02*
X150684477Y-102942600D01*
X151284477Y-106648600D02*
X151284477Y-96754600D01*
X148964477Y-100460600D02*
X148964477Y-97985600D01*
X150524477Y-100460600D02*
X150524477Y-96994600D01*
X150364477Y-100460600D02*
X150364477Y-97062600D01*
X148484477Y-104907600D02*
X148484477Y-98495600D01*
X147564477Y-103211600D02*
X147564477Y-100191600D01*
X150364477Y-106340600D02*
X150364477Y-102942600D01*
X148684477Y-105137600D02*
X148684477Y-98265600D01*
X149204477Y-105626600D02*
X149204477Y-102942600D01*
X149044477Y-100460600D02*
X149044477Y-97912600D01*
X149484477Y-105839600D02*
X149484477Y-102942600D01*
X151404477Y-106675600D02*
X151404477Y-96727600D01*
X150164477Y-100460600D02*
X150164477Y-97156600D01*
X151885477Y-106751600D02*
X151885477Y-96651600D01*
X148804477Y-100460600D02*
X148804477Y-98140600D01*
X148364477Y-104755600D02*
X148364477Y-98647600D01*
X151124477Y-106608600D02*
X151124477Y-102942600D01*
X152325477Y-106780600D02*
X152325477Y-96622600D01*
X150684477Y-100460600D02*
X150684477Y-96933600D01*
X151684477Y-106725600D02*
X151684477Y-96677600D01*
X150204477Y-106265600D02*
X150204477Y-102942600D01*
X152045477Y-106766600D02*
X152045477Y-96636600D01*
X150244477Y-106285600D02*
X150244477Y-102942600D01*
X152365477Y-106781600D02*
X152365477Y-96621600D01*
X151244477Y-106639600D02*
X151244477Y-96763600D01*
X150884477Y-100460600D02*
X150884477Y-96864600D01*
X150444477Y-106375600D02*
X150444477Y-102942600D01*
X149724477Y-100460600D02*
X149724477Y-97403600D01*
X149964477Y-100460600D02*
X149964477Y-97261600D01*
X149524477Y-105867600D02*
X149524477Y-102942600D01*
X148244477Y-104590600D02*
X148244477Y-98812600D01*
X149164477Y-105593600D02*
X149164477Y-102942600D01*
X148604477Y-105048600D02*
X148604477Y-98354600D01*
X149644477Y-105948600D02*
X149644477Y-102942600D01*
X150284477Y-100460600D02*
X150284477Y-97098600D01*
X151164477Y-106619600D02*
X151164477Y-102942600D01*
X151925477Y-106755600D02*
X151925477Y-96647600D01*
X149924477Y-106118600D02*
X149924477Y-102942600D01*
X151444477Y-106683600D02*
X151444477Y-96719600D01*
X149404477Y-100460600D02*
X149404477Y-97621600D01*
X152405477Y-106781600D02*
X152405477Y-96621600D01*
X149284477Y-105690600D02*
X149284477Y-102942600D01*
X148924477Y-105380600D02*
X148924477Y-102942600D01*
X148204477Y-104531600D02*
X148204477Y-98871600D01*
X149444477Y-100460600D02*
X149444477Y-97591600D01*
X150964477Y-106563600D02*
X150964477Y-102942600D01*
X151084477Y-106598600D02*
X151084477Y-102942600D01*
X150884477Y-106538600D02*
X150884477Y-102942600D01*
X150724477Y-106484600D02*
X150724477Y-102942600D01*
X149124477Y-105559600D02*
X149124477Y-102942600D01*
X151524477Y-106698600D02*
X151524477Y-96704600D01*
X150644477Y-106455600D02*
X150644477Y-102942600D01*
X148044477Y-104280600D02*
X148044477Y-99122600D01*
X148804477Y-105262600D02*
X148804477Y-102942600D01*
X149244477Y-105658600D02*
X149244477Y-102942600D01*
X149204477Y-100460600D02*
X149204477Y-97776600D01*
X148444477Y-104857600D02*
X148444477Y-98545600D01*
X151724477Y-106731600D02*
X151724477Y-96671600D01*
X151845477Y-106746600D02*
X151845477Y-96656600D01*
X152085477Y-106769600D02*
X152085477Y-96633600D01*
X151044477Y-106586600D02*
X151044477Y-102942600D01*
X149684477Y-100460600D02*
X149684477Y-97428600D01*
X150324477Y-100460600D02*
X150324477Y-97080600D01*
X150724477Y-100460600D02*
X150724477Y-96918600D01*
X149404477Y-105781600D02*
X149404477Y-102942600D01*
X148404477Y-104807600D02*
X148404477Y-98595600D01*
X149364477Y-100460600D02*
X149364477Y-97651600D01*
X149284477Y-100460600D02*
X149284477Y-97712600D01*
X150764477Y-100460600D02*
X150764477Y-96904600D01*
X149524477Y-100460600D02*
X149524477Y-97535600D01*
X150924477Y-100460600D02*
X150924477Y-96851600D01*
X147604477Y-103331600D02*
X147604477Y-100071600D01*
X149844477Y-100460600D02*
X149844477Y-97330600D01*
X147804477Y-103826600D02*
X147804477Y-99576600D01*
X148964477Y-105417600D02*
X148964477Y-102942600D01*
X149924477Y-100460600D02*
X149924477Y-97284600D01*
X149804477Y-100460600D02*
X149804477Y-97354600D01*
X148884477Y-100460600D02*
X148884477Y-98061600D01*
X150284477Y-106304600D02*
X150284477Y-102942600D01*
X157425123Y-105076600D02*
X157425123Y-104076600D01*
X149564477Y-100460600D02*
X149564477Y-97507600D01*
X149684477Y-105974600D02*
X149684477Y-102942600D01*
X150844477Y-106525600D02*
X150844477Y-102942600D01*
X148124477Y-104410600D02*
X148124477Y-98992600D01*
X148764477Y-105221600D02*
X148764477Y-102942600D01*
X150204477Y-100460600D02*
X150204477Y-97137600D01*
X151044477Y-100460600D02*
X151044477Y-96816600D01*
X147844477Y-103910600D02*
X147844477Y-99492600D01*
X148844477Y-105302600D02*
X148844477Y-102942600D01*
X152245477Y-106778600D02*
X152245477Y-96624600D01*
X149804477Y-106048600D02*
X149804477Y-102942600D01*
X150604477Y-106439600D02*
X150604477Y-102942600D01*
X150084477Y-106205600D02*
X150084477Y-102942600D01*
X150924477Y-106551600D02*
X150924477Y-102942600D01*
X150564477Y-100460600D02*
X150564477Y-96978600D01*
X150164477Y-106246600D02*
X150164477Y-102942600D01*
X151164477Y-100460600D02*
X151164477Y-96783600D01*
X151004477Y-100460600D02*
X151004477Y-96827600D01*
X148884477Y-105341600D02*
X148884477Y-102942600D01*
X149364477Y-105751600D02*
X149364477Y-102942600D01*
X150644477Y-100460600D02*
X150644477Y-96947600D01*
X149124477Y-100460600D02*
X149124477Y-97843600D01*
X148924477Y-100460600D02*
X148924477Y-98022600D01*
X149884477Y-100460600D02*
X149884477Y-97306600D01*
X150044477Y-106184600D02*
X150044477Y-102942600D01*
X151965477Y-106759600D02*
X151965477Y-96643600D01*
X152125477Y-106771600D02*
X152125477Y-96631600D01*
X150044477Y-100460600D02*
X150044477Y-97218600D01*
X147444477Y-102763600D02*
X147444477Y-100639600D01*
X147764477Y-103738600D02*
X147764477Y-99664600D01*
X149084477Y-100460600D02*
X149084477Y-97877600D01*
X150804477Y-106512600D02*
X150804477Y-102942600D01*
X152445477Y-106781600D02*
X152445477Y-96621600D01*
X149244477Y-100460600D02*
X149244477Y-97744600D01*
X152205477Y-106776600D02*
X152205477Y-96626600D01*
X151364477Y-106666600D02*
X151364477Y-96736600D01*
X148724477Y-100460600D02*
X148724477Y-98223600D01*
X148004477Y-104211600D02*
X148004477Y-99191600D01*
X151644477Y-106719600D02*
X151644477Y-96683600D01*
X150764477Y-106498600D02*
X150764477Y-102942600D01*
X148324477Y-104701600D02*
X148324477Y-98701600D01*
X150844477Y-100460600D02*
X150844477Y-96877600D01*
X147644477Y-103443600D02*
X147644477Y-99959600D01*
X149844477Y-106072600D02*
X149844477Y-102942600D01*
X150004477Y-100460600D02*
X150004477Y-97239600D01*
X150804477Y-100460600D02*
X150804477Y-96890600D01*
X150484477Y-106391600D02*
X150484477Y-102942600D01*
X151084477Y-100460600D02*
X151084477Y-96804600D01*
X147884477Y-103990600D02*
X147884477Y-99412600D01*
X149084477Y-105525600D02*
X149084477Y-102942600D01*
X150564477Y-106424600D02*
X150564477Y-102942600D01*
X148644477Y-105093600D02*
X148644477Y-98309600D01*
X148084477Y-104346600D02*
X148084477Y-99056600D01*
X150524477Y-106408600D02*
X150524477Y-102942600D01*
X157565477Y-101701600D02*
G75*
G03*
X157565477Y-101701600I-5120000J0D01*
G01*
%TO.C,U1*%
X162179000Y-79502000D02*
X131699000Y-79502000D01*
X131699000Y-96012000D02*
X162179000Y-96012000D01*
X131699000Y-79502000D02*
X131699000Y-96012000D01*
X162179000Y-96012000D02*
X162179000Y-79502000D01*
%TD*%
M02*
