%TF.GenerationSoftware,KiCad,Pcbnew,(6.0.4)*%
%TF.CreationDate,2022-05-23T21:32:27+01:00*%
%TF.ProjectId,nRF24BB,6e524632-3442-4422-9e6b-696361645f70,1.0*%
%TF.SameCoordinates,Original*%
%TF.FileFunction,Legend,Bot*%
%TF.FilePolarity,Positive*%
%FSLAX46Y46*%
G04 Gerber Fmt 4.6, Leading zero omitted, Abs format (unit mm)*
G04 Created by KiCad (PCBNEW (6.0.4)) date 2022-05-23 21:32:27*
%MOMM*%
%LPD*%
G01*
G04 APERTURE LIST*
%ADD10C,0.150000*%
%ADD11C,0.120000*%
G04 APERTURE END LIST*
D10*
X145896742Y-106094161D02*
X145753885Y-106141780D01*
X145515790Y-106141780D01*
X145420552Y-106094161D01*
X145372933Y-106046542D01*
X145325314Y-105951304D01*
X145325314Y-105856066D01*
X145372933Y-105760828D01*
X145420552Y-105713209D01*
X145515790Y-105665590D01*
X145706266Y-105617971D01*
X145801504Y-105570352D01*
X145849123Y-105522733D01*
X145896742Y-105427495D01*
X145896742Y-105332257D01*
X145849123Y-105237019D01*
X145801504Y-105189400D01*
X145706266Y-105141780D01*
X145468171Y-105141780D01*
X145325314Y-105189400D01*
X144896742Y-106141780D02*
X144896742Y-105141780D01*
X144563409Y-105856066D01*
X144230076Y-105141780D01*
X144230076Y-106141780D01*
X143801504Y-105856066D02*
X143325314Y-105856066D01*
X143896742Y-106141780D02*
X143563409Y-105141780D01*
X143230076Y-106141780D01*
X142325314Y-106141780D02*
X142658647Y-105665590D01*
X142896742Y-106141780D02*
X142896742Y-105141780D01*
X142515790Y-105141780D01*
X142420552Y-105189400D01*
X142372933Y-105237019D01*
X142325314Y-105332257D01*
X142325314Y-105475114D01*
X142372933Y-105570352D01*
X142420552Y-105617971D01*
X142515790Y-105665590D01*
X142896742Y-105665590D01*
X142039600Y-105141780D02*
X141468171Y-105141780D01*
X141753885Y-106141780D02*
X141753885Y-105141780D01*
X140372933Y-106141780D02*
X140372933Y-105141780D01*
X139896742Y-106141780D02*
X139896742Y-105141780D01*
X139325314Y-106141780D01*
X139325314Y-105141780D01*
X138849123Y-106141780D02*
X138849123Y-105141780D01*
X138611028Y-105141780D01*
X138468171Y-105189400D01*
X138372933Y-105284638D01*
X138325314Y-105379876D01*
X138277695Y-105570352D01*
X138277695Y-105713209D01*
X138325314Y-105903685D01*
X138372933Y-105998923D01*
X138468171Y-106094161D01*
X138611028Y-106141780D01*
X138849123Y-106141780D01*
X137849123Y-105141780D02*
X137849123Y-105951304D01*
X137801504Y-106046542D01*
X137753885Y-106094161D01*
X137658647Y-106141780D01*
X137468171Y-106141780D01*
X137372933Y-106094161D01*
X137325314Y-106046542D01*
X137277695Y-105951304D01*
X137277695Y-105141780D01*
X136849123Y-106094161D02*
X136706266Y-106141780D01*
X136468171Y-106141780D01*
X136372933Y-106094161D01*
X136325314Y-106046542D01*
X136277695Y-105951304D01*
X136277695Y-105856066D01*
X136325314Y-105760828D01*
X136372933Y-105713209D01*
X136468171Y-105665590D01*
X136658647Y-105617971D01*
X136753885Y-105570352D01*
X136801504Y-105522733D01*
X136849123Y-105427495D01*
X136849123Y-105332257D01*
X136801504Y-105237019D01*
X136753885Y-105189400D01*
X136658647Y-105141780D01*
X136420552Y-105141780D01*
X136277695Y-105189400D01*
X135991980Y-105141780D02*
X135420552Y-105141780D01*
X135706266Y-106141780D02*
X135706266Y-105141780D01*
X134515790Y-106141780D02*
X134849123Y-105665590D01*
X135087219Y-106141780D02*
X135087219Y-105141780D01*
X134706266Y-105141780D01*
X134611028Y-105189400D01*
X134563409Y-105237019D01*
X134515790Y-105332257D01*
X134515790Y-105475114D01*
X134563409Y-105570352D01*
X134611028Y-105617971D01*
X134706266Y-105665590D01*
X135087219Y-105665590D01*
X134087219Y-106141780D02*
X134087219Y-105141780D01*
X133611028Y-105617971D02*
X133277695Y-105617971D01*
X133134838Y-106141780D02*
X133611028Y-106141780D01*
X133611028Y-105141780D01*
X133134838Y-105141780D01*
X132753885Y-106094161D02*
X132611028Y-106141780D01*
X132372933Y-106141780D01*
X132277695Y-106094161D01*
X132230076Y-106046542D01*
X132182457Y-105951304D01*
X132182457Y-105856066D01*
X132230076Y-105760828D01*
X132277695Y-105713209D01*
X132372933Y-105665590D01*
X132563409Y-105617971D01*
X132658647Y-105570352D01*
X132706266Y-105522733D01*
X132753885Y-105427495D01*
X132753885Y-105332257D01*
X132706266Y-105237019D01*
X132658647Y-105189400D01*
X132563409Y-105141780D01*
X132325314Y-105141780D01*
X132182457Y-105189400D01*
%TO.C,J1*%
X169319533Y-78674980D02*
X169319533Y-79389266D01*
X169367152Y-79532123D01*
X169462390Y-79627361D01*
X169605247Y-79674980D01*
X169700485Y-79674980D01*
X168319533Y-79674980D02*
X168890961Y-79674980D01*
X168605247Y-79674980D02*
X168605247Y-78674980D01*
X168700485Y-78817838D01*
X168795723Y-78913076D01*
X168890961Y-78960695D01*
D11*
X170240000Y-100390000D02*
X167580000Y-100390000D01*
X167580000Y-82550000D02*
X167580000Y-100390000D01*
X170240000Y-82550000D02*
X167580000Y-82550000D01*
X170240000Y-79950000D02*
X168910000Y-79950000D01*
X170240000Y-81280000D02*
X170240000Y-79950000D01*
X170240000Y-82550000D02*
X170240000Y-100390000D01*
%TD*%
M02*
