%TF.GenerationSoftware,KiCad,Pcbnew,(6.0.4)*%
%TF.CreationDate,2022-05-23T21:32:27+01:00*%
%TF.ProjectId,nRF24BB,6e524632-3442-4422-9e6b-696361645f70,1.0*%
%TF.SameCoordinates,Original*%
%TF.FileFunction,Copper,L1,Top*%
%TF.FilePolarity,Positive*%
%FSLAX46Y46*%
G04 Gerber Fmt 4.6, Leading zero omitted, Abs format (unit mm)*
G04 Created by KiCad (PCBNEW (6.0.4)) date 2022-05-23 21:32:27*
%MOMM*%
%LPD*%
G01*
G04 APERTURE LIST*
%TA.AperFunction,ComponentPad*%
%ADD10R,2.000000X2.000000*%
%TD*%
%TA.AperFunction,ComponentPad*%
%ADD11C,2.000000*%
%TD*%
%TA.AperFunction,ComponentPad*%
%ADD12C,1.524000*%
%TD*%
%TA.AperFunction,ComponentPad*%
%ADD13R,1.700000X1.700000*%
%TD*%
%TA.AperFunction,ComponentPad*%
%ADD14O,1.700000X1.700000*%
%TD*%
%TA.AperFunction,Conductor*%
%ADD15C,0.508000*%
%TD*%
%TA.AperFunction,Conductor*%
%ADD16C,0.381000*%
%TD*%
%TA.AperFunction,Conductor*%
%ADD17C,0.250000*%
%TD*%
G04 APERTURE END LIST*
D10*
%TO.P,C1,1*%
%TO.N,Net-(C1-Pad1)*%
X154945477Y-101701600D03*
D11*
%TO.P,C1,2*%
%TO.N,Net-(C1-Pad2)*%
X149945477Y-101701600D03*
%TD*%
D12*
%TO.P,U1,0,GND*%
%TO.N,Net-(C1-Pad2)*%
X159639000Y-94107000D03*
%TO.P,U1,1,CE*%
%TO.N,Net-(J1-Pad2)*%
X159639000Y-91567000D03*
%TO.P,U1,2,SCK*%
%TO.N,Net-(J1-Pad3)*%
X159639000Y-89027000D03*
%TO.P,U1,3,MISO*%
%TO.N,Net-(J1-Pad4)*%
X159639000Y-86487000D03*
%TO.P,U1,4,IRG*%
%TO.N,Net-(J1-Pad5)*%
X157099000Y-86487000D03*
%TO.P,U1,5,MOSI*%
%TO.N,Net-(J1-Pad6)*%
X157099000Y-89027000D03*
%TO.P,U1,6,CSN*%
%TO.N,Net-(J1-Pad7)*%
X157099000Y-91567000D03*
%TO.P,U1,7,VCC*%
%TO.N,Net-(C1-Pad1)*%
X157099000Y-94107000D03*
%TD*%
D13*
%TO.P,J1,1,Pin_1*%
%TO.N,Net-(C1-Pad2)*%
X168910000Y-81280000D03*
D14*
%TO.P,J1,2,Pin_2*%
%TO.N,Net-(J1-Pad2)*%
X168910000Y-83820000D03*
%TO.P,J1,3,Pin_3*%
%TO.N,Net-(J1-Pad3)*%
X168910000Y-86360000D03*
%TO.P,J1,4,Pin_4*%
%TO.N,Net-(J1-Pad4)*%
X168910000Y-88900000D03*
%TO.P,J1,5,Pin_5*%
%TO.N,Net-(J1-Pad5)*%
X168910000Y-91440000D03*
%TO.P,J1,6,Pin_6*%
%TO.N,Net-(J1-Pad6)*%
X168910000Y-93980000D03*
%TO.P,J1,7,Pin_7*%
%TO.N,Net-(J1-Pad7)*%
X168910000Y-96520000D03*
%TO.P,J1,8,Pin_8*%
%TO.N,Net-(C1-Pad1)*%
X168910000Y-99060000D03*
%TD*%
D15*
%TO.N,Net-(C1-Pad1)*%
X154945477Y-99308523D02*
X157099000Y-97155000D01*
X154945477Y-101701600D02*
X154945477Y-99308523D01*
X159004000Y-99060000D02*
X157099000Y-97155000D01*
X159004000Y-99060000D02*
X168910000Y-99060000D01*
X157099000Y-97155000D02*
X157099000Y-94107000D01*
D16*
%TO.N,Net-(C1-Pad2)*%
X159675000Y-96302000D02*
X161163000Y-97790000D01*
X155879800Y-92862400D02*
X157556200Y-92862400D01*
X149945477Y-101701600D02*
X154355800Y-97291277D01*
X161163000Y-97790000D02*
X170561000Y-97790000D01*
X159675000Y-94120000D02*
X159675000Y-96302000D01*
X154355800Y-97291277D02*
X154355800Y-93954600D01*
X170561000Y-97790000D02*
X170561000Y-82931000D01*
X170561000Y-82931000D02*
X168910000Y-81280000D01*
D17*
X158800800Y-94107000D02*
X159639000Y-94107000D01*
D16*
X154355800Y-93954600D02*
X155879800Y-92862400D01*
X157556200Y-92862400D02*
X158800800Y-94107000D01*
D17*
%TO.N,Net-(J1-Pad2)*%
X155905200Y-83794600D02*
X168910000Y-83820000D01*
X154838400Y-85039200D02*
X155905200Y-83794600D01*
X155829000Y-90297000D02*
X154838400Y-88646000D01*
X157734000Y-90297000D02*
X155829000Y-90297000D01*
X159675000Y-91580000D02*
X157734000Y-90297000D01*
X154838400Y-88646000D02*
X154838400Y-85039200D01*
%TO.N,Net-(J1-Pad3)*%
X163830000Y-85090000D02*
X165100000Y-86360000D01*
X155956000Y-85217000D02*
X156083000Y-85090000D01*
X156083000Y-85090000D02*
X163830000Y-85090000D01*
X158115000Y-87757000D02*
X155956000Y-87757000D01*
X159675000Y-89040000D02*
X158115000Y-87757000D01*
X165100000Y-86360000D02*
X168910000Y-86360000D01*
X155956000Y-87757000D02*
X155956000Y-85217000D01*
%TO.N,Net-(J1-Pad4)*%
X164592000Y-88900000D02*
X162179000Y-86487000D01*
X168910000Y-88900000D02*
X164592000Y-88900000D01*
X162179000Y-86487000D02*
X159639000Y-86487000D01*
%TO.N,Net-(J1-Pad5)*%
X164973000Y-91440000D02*
X168910000Y-91440000D01*
X158138440Y-86500000D02*
X159258000Y-87757000D01*
X157135000Y-86500000D02*
X158138440Y-86500000D01*
X159258000Y-87757000D02*
X161417000Y-87757000D01*
X161417000Y-87757000D02*
X164973000Y-91440000D01*
%TO.N,Net-(J1-Pad6)*%
X161366200Y-90271600D02*
X165354000Y-93980000D01*
X157135000Y-89040000D02*
X157861000Y-89027000D01*
X157861000Y-89027000D02*
X158877000Y-90297000D01*
X165354000Y-93980000D02*
X168910000Y-93980000D01*
X158877000Y-90297000D02*
X161366200Y-90271600D01*
%TO.N,Net-(J1-Pad7)*%
X165354000Y-96520000D02*
X168910000Y-96520000D01*
X157135000Y-91580000D02*
X158623000Y-92837000D01*
X158623000Y-92837000D02*
X161620200Y-92837000D01*
X161620200Y-92837000D02*
X165354000Y-96520000D01*
%TD*%
%TA.AperFunction,Conductor*%
%TO.N,Net-(C1-Pad2)*%
G36*
X170858221Y-78379502D02*
G01*
X170904714Y-78433158D01*
X170916100Y-78485500D01*
X170916100Y-106680500D01*
X170896098Y-106748621D01*
X170842442Y-106795114D01*
X170790100Y-106806500D01*
X131571500Y-106806500D01*
X131503379Y-106786498D01*
X131456886Y-106732842D01*
X131445500Y-106680500D01*
X131445500Y-102934270D01*
X149077637Y-102934270D01*
X149083364Y-102941920D01*
X149254519Y-103046805D01*
X149263314Y-103051287D01*
X149473465Y-103138334D01*
X149482850Y-103141383D01*
X149704031Y-103194485D01*
X149713778Y-103196028D01*
X149940547Y-103213875D01*
X149950407Y-103213875D01*
X150177176Y-103196028D01*
X150186923Y-103194485D01*
X150408104Y-103141383D01*
X150417489Y-103138334D01*
X150627640Y-103051287D01*
X150636435Y-103046805D01*
X150803922Y-102944168D01*
X150813384Y-102933710D01*
X150809601Y-102924934D01*
X150634401Y-102749734D01*
X153436977Y-102749734D01*
X153443732Y-102811916D01*
X153494862Y-102948305D01*
X153582216Y-103064861D01*
X153698772Y-103152215D01*
X153835161Y-103203345D01*
X153897343Y-103210100D01*
X155993611Y-103210100D01*
X156055793Y-103203345D01*
X156192182Y-103152215D01*
X156308738Y-103064861D01*
X156396092Y-102948305D01*
X156447222Y-102811916D01*
X156453977Y-102749734D01*
X156453977Y-100653466D01*
X156447222Y-100591284D01*
X156396092Y-100454895D01*
X156308738Y-100338339D01*
X156192182Y-100250985D01*
X156055793Y-100199855D01*
X155993611Y-100193100D01*
X155833977Y-100193100D01*
X155765856Y-100173098D01*
X155719363Y-100119442D01*
X155707977Y-100067100D01*
X155707977Y-99676551D01*
X155727979Y-99608430D01*
X155744882Y-99587456D01*
X157009905Y-98322433D01*
X157072217Y-98288407D01*
X157143032Y-98293472D01*
X157188095Y-98322433D01*
X158417190Y-99551528D01*
X158429577Y-99565941D01*
X158442546Y-99583564D01*
X158448129Y-99588307D01*
X158483055Y-99617979D01*
X158490571Y-99624909D01*
X158496315Y-99630653D01*
X158499189Y-99632927D01*
X158499196Y-99632933D01*
X158518711Y-99648372D01*
X158522115Y-99651163D01*
X158572472Y-99693945D01*
X158572476Y-99693948D01*
X158578051Y-99698684D01*
X158584568Y-99702012D01*
X158589632Y-99705389D01*
X158594856Y-99708616D01*
X158600600Y-99713160D01*
X158667104Y-99744242D01*
X158671001Y-99746147D01*
X158736404Y-99779543D01*
X158743518Y-99781284D01*
X158749252Y-99783416D01*
X158755048Y-99785344D01*
X158761680Y-99788444D01*
X158833555Y-99803394D01*
X158837839Y-99804364D01*
X158909112Y-99821804D01*
X158914714Y-99822152D01*
X158914717Y-99822152D01*
X158920330Y-99822500D01*
X158920328Y-99822537D01*
X158924227Y-99822773D01*
X158928598Y-99823163D01*
X158935757Y-99824652D01*
X159013577Y-99822546D01*
X159016986Y-99822500D01*
X167715542Y-99822500D01*
X167783663Y-99842502D01*
X167810779Y-99866003D01*
X167877900Y-99943489D01*
X167956250Y-100033938D01*
X168128126Y-100176632D01*
X168321000Y-100289338D01*
X168529692Y-100369030D01*
X168534760Y-100370061D01*
X168534763Y-100370062D01*
X168642017Y-100391883D01*
X168748597Y-100413567D01*
X168753772Y-100413757D01*
X168753774Y-100413757D01*
X168966673Y-100421564D01*
X168966677Y-100421564D01*
X168971837Y-100421753D01*
X168976957Y-100421097D01*
X168976959Y-100421097D01*
X169188288Y-100394025D01*
X169188289Y-100394025D01*
X169193416Y-100393368D01*
X169198366Y-100391883D01*
X169402429Y-100330661D01*
X169402434Y-100330659D01*
X169407384Y-100329174D01*
X169607994Y-100230896D01*
X169789860Y-100101173D01*
X169948096Y-99943489D01*
X170059507Y-99788444D01*
X170075435Y-99766277D01*
X170078453Y-99762077D01*
X170106758Y-99704807D01*
X170175136Y-99566453D01*
X170175137Y-99566451D01*
X170177430Y-99561811D01*
X170242370Y-99348069D01*
X170271529Y-99126590D01*
X170271611Y-99123240D01*
X170273074Y-99063365D01*
X170273074Y-99063361D01*
X170273156Y-99060000D01*
X170254852Y-98837361D01*
X170200431Y-98620702D01*
X170111354Y-98415840D01*
X170050926Y-98322433D01*
X169992822Y-98232617D01*
X169992820Y-98232614D01*
X169990014Y-98228277D01*
X169839670Y-98063051D01*
X169835619Y-98059852D01*
X169835615Y-98059848D01*
X169668414Y-97927800D01*
X169668410Y-97927798D01*
X169664359Y-97924598D01*
X169623053Y-97901796D01*
X169573084Y-97851364D01*
X169558312Y-97781921D01*
X169583428Y-97715516D01*
X169610780Y-97688909D01*
X169654603Y-97657650D01*
X169789860Y-97561173D01*
X169948096Y-97403489D01*
X170078453Y-97222077D01*
X170082611Y-97213665D01*
X170175136Y-97026453D01*
X170175137Y-97026451D01*
X170177430Y-97021811D01*
X170232923Y-96839162D01*
X170240865Y-96813023D01*
X170240865Y-96813021D01*
X170242370Y-96808069D01*
X170271529Y-96586590D01*
X170273156Y-96520000D01*
X170254852Y-96297361D01*
X170200431Y-96080702D01*
X170111354Y-95875840D01*
X169990014Y-95688277D01*
X169839670Y-95523051D01*
X169835619Y-95519852D01*
X169835615Y-95519848D01*
X169668414Y-95387800D01*
X169668410Y-95387798D01*
X169664359Y-95384598D01*
X169623053Y-95361796D01*
X169573084Y-95311364D01*
X169558312Y-95241921D01*
X169583428Y-95175516D01*
X169610780Y-95148909D01*
X169654603Y-95117650D01*
X169789860Y-95021173D01*
X169948096Y-94863489D01*
X169992839Y-94801223D01*
X170075435Y-94686277D01*
X170078453Y-94682077D01*
X170082611Y-94673665D01*
X170175136Y-94486453D01*
X170175137Y-94486451D01*
X170177430Y-94481811D01*
X170222407Y-94333776D01*
X170240865Y-94273023D01*
X170240865Y-94273021D01*
X170242370Y-94268069D01*
X170271529Y-94046590D01*
X170273156Y-93980000D01*
X170254852Y-93757361D01*
X170200431Y-93540702D01*
X170111354Y-93335840D01*
X169990014Y-93148277D01*
X169839670Y-92983051D01*
X169835619Y-92979852D01*
X169835615Y-92979848D01*
X169668414Y-92847800D01*
X169668410Y-92847798D01*
X169664359Y-92844598D01*
X169623053Y-92821796D01*
X169573084Y-92771364D01*
X169558312Y-92701921D01*
X169583428Y-92635516D01*
X169610780Y-92608909D01*
X169654603Y-92577650D01*
X169789860Y-92481173D01*
X169948096Y-92323489D01*
X169953049Y-92316597D01*
X170075435Y-92146277D01*
X170078453Y-92142077D01*
X170082611Y-92133665D01*
X170175136Y-91946453D01*
X170175137Y-91946451D01*
X170177430Y-91941811D01*
X170224021Y-91788463D01*
X170240865Y-91733023D01*
X170240865Y-91733021D01*
X170242370Y-91728069D01*
X170271529Y-91506590D01*
X170273156Y-91440000D01*
X170254852Y-91217361D01*
X170200431Y-91000702D01*
X170111354Y-90795840D01*
X170051952Y-90704018D01*
X169992822Y-90612617D01*
X169992820Y-90612614D01*
X169990014Y-90608277D01*
X169839670Y-90443051D01*
X169835619Y-90439852D01*
X169835615Y-90439848D01*
X169668414Y-90307800D01*
X169668410Y-90307798D01*
X169664359Y-90304598D01*
X169623053Y-90281796D01*
X169573084Y-90231364D01*
X169558312Y-90161921D01*
X169583428Y-90095516D01*
X169610780Y-90068909D01*
X169654603Y-90037650D01*
X169789860Y-89941173D01*
X169948096Y-89783489D01*
X169987832Y-89728191D01*
X170075435Y-89606277D01*
X170078453Y-89602077D01*
X170082611Y-89593665D01*
X170175136Y-89406453D01*
X170175137Y-89406451D01*
X170177430Y-89401811D01*
X170224021Y-89248463D01*
X170240865Y-89193023D01*
X170240865Y-89193021D01*
X170242370Y-89188069D01*
X170271529Y-88966590D01*
X170272251Y-88937037D01*
X170273074Y-88903365D01*
X170273074Y-88903361D01*
X170273156Y-88900000D01*
X170254852Y-88677361D01*
X170200431Y-88460702D01*
X170111354Y-88255840D01*
X169990014Y-88068277D01*
X169839670Y-87903051D01*
X169835619Y-87899852D01*
X169835615Y-87899848D01*
X169668414Y-87767800D01*
X169668410Y-87767798D01*
X169664359Y-87764598D01*
X169623053Y-87741796D01*
X169573084Y-87691364D01*
X169558312Y-87621921D01*
X169583428Y-87555516D01*
X169610780Y-87528909D01*
X169654603Y-87497650D01*
X169789860Y-87401173D01*
X169948096Y-87243489D01*
X170078453Y-87062077D01*
X170082611Y-87053665D01*
X170175136Y-86866453D01*
X170175137Y-86866451D01*
X170177430Y-86861811D01*
X170242370Y-86648069D01*
X170271529Y-86426590D01*
X170273156Y-86360000D01*
X170254852Y-86137361D01*
X170200431Y-85920702D01*
X170111354Y-85715840D01*
X169990014Y-85528277D01*
X169839670Y-85363051D01*
X169835619Y-85359852D01*
X169835615Y-85359848D01*
X169668414Y-85227800D01*
X169668410Y-85227798D01*
X169664359Y-85224598D01*
X169623053Y-85201796D01*
X169573084Y-85151364D01*
X169558312Y-85081921D01*
X169583428Y-85015516D01*
X169610780Y-84988909D01*
X169672746Y-84944709D01*
X169789860Y-84861173D01*
X169860226Y-84791053D01*
X169944435Y-84707137D01*
X169948096Y-84703489D01*
X169956710Y-84691502D01*
X170075435Y-84526277D01*
X170078453Y-84522077D01*
X170091191Y-84496305D01*
X170175136Y-84326453D01*
X170175137Y-84326451D01*
X170177430Y-84321811D01*
X170242370Y-84108069D01*
X170271529Y-83886590D01*
X170273156Y-83820000D01*
X170254852Y-83597361D01*
X170200431Y-83380702D01*
X170111354Y-83175840D01*
X169990014Y-82988277D01*
X169986540Y-82984459D01*
X169986533Y-82984450D01*
X169842435Y-82826088D01*
X169811383Y-82762242D01*
X169819779Y-82691744D01*
X169864956Y-82636976D01*
X169891400Y-82623307D01*
X169998052Y-82583325D01*
X170013649Y-82574786D01*
X170115724Y-82498285D01*
X170128285Y-82485724D01*
X170204786Y-82383649D01*
X170213324Y-82368054D01*
X170258478Y-82247606D01*
X170262105Y-82232351D01*
X170267631Y-82181486D01*
X170268000Y-82174672D01*
X170268000Y-81552115D01*
X170263525Y-81536876D01*
X170262135Y-81535671D01*
X170254452Y-81534000D01*
X167570116Y-81534000D01*
X167554877Y-81538475D01*
X167553672Y-81539865D01*
X167552001Y-81547548D01*
X167552001Y-82174669D01*
X167552371Y-82181490D01*
X167557895Y-82232352D01*
X167561521Y-82247604D01*
X167606676Y-82368054D01*
X167615214Y-82383649D01*
X167691715Y-82485724D01*
X167704276Y-82498285D01*
X167806351Y-82574786D01*
X167821946Y-82583324D01*
X167930827Y-82624142D01*
X167987591Y-82666784D01*
X168012291Y-82733345D01*
X167997083Y-82802694D01*
X167977691Y-82829175D01*
X167854200Y-82958401D01*
X167850629Y-82962138D01*
X167847715Y-82966410D01*
X167847714Y-82966411D01*
X167736798Y-83129008D01*
X167681887Y-83174011D01*
X167632465Y-83184004D01*
X162994104Y-83174944D01*
X155960143Y-83161205D01*
X155942418Y-83159917D01*
X155924207Y-83157293D01*
X155924206Y-83157293D01*
X155916358Y-83156162D01*
X155875754Y-83160572D01*
X155870348Y-83161031D01*
X155866581Y-83161023D01*
X155832826Y-83165220D01*
X155830962Y-83165437D01*
X155807926Y-83167939D01*
X155765120Y-83172588D01*
X155765116Y-83172589D01*
X155757234Y-83173445D01*
X155752561Y-83175202D01*
X155747611Y-83175817D01*
X155678600Y-83202984D01*
X155676845Y-83203659D01*
X155650264Y-83213650D01*
X155607408Y-83229758D01*
X155603322Y-83232619D01*
X155598676Y-83234448D01*
X155538540Y-83277961D01*
X155537032Y-83279033D01*
X155482791Y-83317010D01*
X155482786Y-83317014D01*
X155476294Y-83321560D01*
X155473045Y-83325350D01*
X155469003Y-83328275D01*
X155463939Y-83334372D01*
X155421626Y-83385317D01*
X155420364Y-83386812D01*
X154443680Y-84526277D01*
X154368629Y-84613836D01*
X154364817Y-84618084D01*
X154321814Y-84663879D01*
X154298033Y-84707137D01*
X154297958Y-84707274D01*
X154292743Y-84715920D01*
X154265476Y-84757270D01*
X154262896Y-84764762D01*
X154262893Y-84764768D01*
X154260613Y-84771388D01*
X154251899Y-84791053D01*
X154244705Y-84804140D01*
X154242734Y-84811818D01*
X154242732Y-84811822D01*
X154232391Y-84852099D01*
X154229484Y-84861788D01*
X154215944Y-84901109D01*
X154215943Y-84901113D01*
X154213362Y-84908609D01*
X154212726Y-84916508D01*
X154212726Y-84916509D01*
X154212164Y-84923490D01*
X154208612Y-84944709D01*
X154206873Y-84951484D01*
X154204900Y-84959170D01*
X154204900Y-85008690D01*
X154204494Y-85018797D01*
X154200522Y-85068151D01*
X154201870Y-85075955D01*
X154201870Y-85075958D01*
X154203062Y-85082858D01*
X154204900Y-85104302D01*
X154204900Y-88566556D01*
X154204414Y-88577615D01*
X154204010Y-88582199D01*
X154202330Y-88589946D01*
X154202629Y-88597867D01*
X154202629Y-88597870D01*
X154204810Y-88655586D01*
X154204900Y-88660343D01*
X154204900Y-88685856D01*
X154205397Y-88689790D01*
X154205397Y-88689791D01*
X154205710Y-88692272D01*
X154206612Y-88703295D01*
X154208373Y-88749891D01*
X154210632Y-88757485D01*
X154213457Y-88766984D01*
X154217690Y-88787102D01*
X154219926Y-88804797D01*
X154222843Y-88812164D01*
X154237089Y-88848146D01*
X154240706Y-88858601D01*
X154254003Y-88903308D01*
X154258083Y-88910109D01*
X154258084Y-88910110D01*
X154263177Y-88918599D01*
X154272283Y-88937037D01*
X154275929Y-88946246D01*
X154275931Y-88946250D01*
X154278848Y-88953617D01*
X154283506Y-88960028D01*
X154283507Y-88960030D01*
X154306251Y-88991334D01*
X154312357Y-89000565D01*
X155093282Y-90302104D01*
X155245401Y-90555636D01*
X155249324Y-90562988D01*
X155251236Y-90568875D01*
X155255484Y-90575569D01*
X155255486Y-90575573D01*
X155289027Y-90628424D01*
X155290679Y-90631100D01*
X155306284Y-90657109D01*
X155308733Y-90660225D01*
X155310976Y-90663481D01*
X155310920Y-90663520D01*
X155314594Y-90668712D01*
X155337000Y-90704018D01*
X155353541Y-90719550D01*
X155366352Y-90733541D01*
X155380363Y-90751369D01*
X155400363Y-90766680D01*
X155413544Y-90776771D01*
X155423202Y-90784967D01*
X155439840Y-90800590D01*
X155453679Y-90813586D01*
X155460625Y-90817404D01*
X155460628Y-90817407D01*
X155473563Y-90824518D01*
X155489452Y-90834883D01*
X155507456Y-90848666D01*
X155514747Y-90851766D01*
X155514750Y-90851768D01*
X155545914Y-90865019D01*
X155557307Y-90870556D01*
X155572874Y-90879113D01*
X155586991Y-90886875D01*
X155586993Y-90886876D01*
X155593940Y-90890695D01*
X155613553Y-90895731D01*
X155615913Y-90896337D01*
X155633881Y-90902425D01*
X155654751Y-90911299D01*
X155662590Y-90912490D01*
X155662591Y-90912490D01*
X155696063Y-90917574D01*
X155708469Y-90920101D01*
X155748970Y-90930500D01*
X155771657Y-90930500D01*
X155790575Y-90931929D01*
X155812995Y-90935334D01*
X155812996Y-90935334D01*
X155812487Y-90938685D01*
X155865368Y-90955676D01*
X155910489Y-91010490D01*
X155918813Y-91080997D01*
X155908783Y-91113169D01*
X155900560Y-91130804D01*
X155843022Y-91345537D01*
X155823647Y-91567000D01*
X155843022Y-91788463D01*
X155900560Y-92003196D01*
X155902882Y-92008177D01*
X155902883Y-92008178D01*
X155992186Y-92199689D01*
X155992189Y-92199694D01*
X155994512Y-92204676D01*
X155997668Y-92209183D01*
X155997669Y-92209185D01*
X156117635Y-92380514D01*
X156122023Y-92386781D01*
X156279219Y-92543977D01*
X156283727Y-92547134D01*
X156283730Y-92547136D01*
X156358480Y-92599476D01*
X156461323Y-92671488D01*
X156466305Y-92673811D01*
X156466310Y-92673814D01*
X156571373Y-92722805D01*
X156624658Y-92769722D01*
X156644119Y-92837999D01*
X156623577Y-92905959D01*
X156571373Y-92951195D01*
X156466311Y-93000186D01*
X156466306Y-93000189D01*
X156461324Y-93002512D01*
X156456817Y-93005668D01*
X156456815Y-93005669D01*
X156283730Y-93126864D01*
X156283727Y-93126866D01*
X156279219Y-93130023D01*
X156122023Y-93287219D01*
X156118866Y-93291727D01*
X156118864Y-93291730D01*
X155998968Y-93462960D01*
X155994512Y-93469324D01*
X155992189Y-93474306D01*
X155992186Y-93474311D01*
X155902883Y-93665822D01*
X155900560Y-93670804D01*
X155843022Y-93885537D01*
X155823647Y-94107000D01*
X155843022Y-94328463D01*
X155900560Y-94543196D01*
X155902882Y-94548177D01*
X155902883Y-94548178D01*
X155992186Y-94739689D01*
X155992189Y-94739694D01*
X155994512Y-94744676D01*
X155997668Y-94749183D01*
X155997669Y-94749185D01*
X156077706Y-94863489D01*
X156122023Y-94926781D01*
X156279219Y-95083977D01*
X156283730Y-95087136D01*
X156287943Y-95090671D01*
X156287016Y-95091776D01*
X156327098Y-95141918D01*
X156336500Y-95189677D01*
X156336500Y-96786972D01*
X156316498Y-96855093D01*
X156299595Y-96876067D01*
X154453949Y-98721713D01*
X154439536Y-98734100D01*
X154421913Y-98747069D01*
X154417169Y-98752652D01*
X154417170Y-98752652D01*
X154387498Y-98787578D01*
X154380568Y-98795094D01*
X154374824Y-98800838D01*
X154372550Y-98803712D01*
X154372544Y-98803719D01*
X154357105Y-98823234D01*
X154354314Y-98826638D01*
X154311532Y-98876995D01*
X154311529Y-98876999D01*
X154306793Y-98882574D01*
X154303465Y-98889091D01*
X154300088Y-98894155D01*
X154296861Y-98899379D01*
X154292317Y-98905123D01*
X154289218Y-98911754D01*
X154261245Y-98971605D01*
X154259314Y-98975556D01*
X154225934Y-99040927D01*
X154224193Y-99048042D01*
X154222056Y-99053788D01*
X154220132Y-99059571D01*
X154217033Y-99066202D01*
X154203783Y-99129908D01*
X154202085Y-99138070D01*
X154201116Y-99142352D01*
X154183673Y-99213635D01*
X154182977Y-99224853D01*
X154182938Y-99224851D01*
X154182705Y-99228752D01*
X154182316Y-99233111D01*
X154180825Y-99240279D01*
X154181023Y-99247596D01*
X154182931Y-99318100D01*
X154182977Y-99321509D01*
X154182977Y-100067100D01*
X154162975Y-100135221D01*
X154109319Y-100181714D01*
X154056977Y-100193100D01*
X153897343Y-100193100D01*
X153835161Y-100199855D01*
X153698772Y-100250985D01*
X153582216Y-100338339D01*
X153494862Y-100454895D01*
X153443732Y-100591284D01*
X153436977Y-100653466D01*
X153436977Y-102749734D01*
X150634401Y-102749734D01*
X149958289Y-102073622D01*
X149944345Y-102066008D01*
X149942512Y-102066139D01*
X149935897Y-102070390D01*
X149084397Y-102921890D01*
X149077637Y-102934270D01*
X131445500Y-102934270D01*
X131445500Y-101706530D01*
X148433202Y-101706530D01*
X148451049Y-101933299D01*
X148452592Y-101943046D01*
X148505694Y-102164227D01*
X148508743Y-102173612D01*
X148595790Y-102383763D01*
X148600272Y-102392558D01*
X148702909Y-102560045D01*
X148713367Y-102569507D01*
X148722143Y-102565724D01*
X149573455Y-101714412D01*
X149579833Y-101702732D01*
X150309885Y-101702732D01*
X150310016Y-101704565D01*
X150314267Y-101711180D01*
X151165767Y-102562680D01*
X151178147Y-102569440D01*
X151185797Y-102563713D01*
X151290682Y-102392558D01*
X151295164Y-102383763D01*
X151382211Y-102173612D01*
X151385260Y-102164227D01*
X151438362Y-101943046D01*
X151439905Y-101933299D01*
X151457752Y-101706530D01*
X151457752Y-101696670D01*
X151439905Y-101469901D01*
X151438362Y-101460154D01*
X151385260Y-101238973D01*
X151382211Y-101229588D01*
X151295164Y-101019437D01*
X151290682Y-101010642D01*
X151188045Y-100843155D01*
X151177587Y-100833693D01*
X151168811Y-100837476D01*
X150317499Y-101688788D01*
X150309885Y-101702732D01*
X149579833Y-101702732D01*
X149581069Y-101700468D01*
X149580938Y-101698635D01*
X149576687Y-101692020D01*
X148725187Y-100840520D01*
X148712807Y-100833760D01*
X148705157Y-100839487D01*
X148600272Y-101010642D01*
X148595790Y-101019437D01*
X148508743Y-101229588D01*
X148505694Y-101238973D01*
X148452592Y-101460154D01*
X148451049Y-101469901D01*
X148433202Y-101696670D01*
X148433202Y-101706530D01*
X131445500Y-101706530D01*
X131445500Y-100469490D01*
X149077570Y-100469490D01*
X149081353Y-100478266D01*
X149932665Y-101329578D01*
X149946609Y-101337192D01*
X149948442Y-101337061D01*
X149955057Y-101332810D01*
X150806557Y-100481310D01*
X150813317Y-100468930D01*
X150807590Y-100461280D01*
X150636435Y-100356395D01*
X150627640Y-100351913D01*
X150417489Y-100264866D01*
X150408104Y-100261817D01*
X150186923Y-100208715D01*
X150177176Y-100207172D01*
X149950407Y-100189325D01*
X149940547Y-100189325D01*
X149713778Y-100207172D01*
X149704031Y-100208715D01*
X149482850Y-100261817D01*
X149473465Y-100264866D01*
X149263314Y-100351913D01*
X149254519Y-100356395D01*
X149087032Y-100459032D01*
X149077570Y-100469490D01*
X131445500Y-100469490D01*
X131445500Y-81007885D01*
X167552000Y-81007885D01*
X167556475Y-81023124D01*
X167557865Y-81024329D01*
X167565548Y-81026000D01*
X168637885Y-81026000D01*
X168653124Y-81021525D01*
X168654329Y-81020135D01*
X168656000Y-81012452D01*
X168656000Y-81007885D01*
X169164000Y-81007885D01*
X169168475Y-81023124D01*
X169169865Y-81024329D01*
X169177548Y-81026000D01*
X170249884Y-81026000D01*
X170265123Y-81021525D01*
X170266328Y-81020135D01*
X170267999Y-81012452D01*
X170267999Y-80385331D01*
X170267629Y-80378510D01*
X170262105Y-80327648D01*
X170258479Y-80312396D01*
X170213324Y-80191946D01*
X170204786Y-80176351D01*
X170128285Y-80074276D01*
X170115724Y-80061715D01*
X170013649Y-79985214D01*
X169998054Y-79976676D01*
X169877606Y-79931522D01*
X169862351Y-79927895D01*
X169811486Y-79922369D01*
X169804672Y-79922000D01*
X169182115Y-79922000D01*
X169166876Y-79926475D01*
X169165671Y-79927865D01*
X169164000Y-79935548D01*
X169164000Y-81007885D01*
X168656000Y-81007885D01*
X168656000Y-79940116D01*
X168651525Y-79924877D01*
X168650135Y-79923672D01*
X168642452Y-79922001D01*
X168015331Y-79922001D01*
X168008510Y-79922371D01*
X167957648Y-79927895D01*
X167942396Y-79931521D01*
X167821946Y-79976676D01*
X167806351Y-79985214D01*
X167704276Y-80061715D01*
X167691715Y-80074276D01*
X167615214Y-80176351D01*
X167606676Y-80191946D01*
X167561522Y-80312394D01*
X167557895Y-80327649D01*
X167552369Y-80378514D01*
X167552000Y-80385328D01*
X167552000Y-81007885D01*
X131445500Y-81007885D01*
X131445500Y-78485500D01*
X131465502Y-78417379D01*
X131519158Y-78370886D01*
X131571500Y-78359500D01*
X170790100Y-78359500D01*
X170858221Y-78379502D01*
G37*
%TD.AperFunction*%
%TA.AperFunction,Conductor*%
G36*
X161376768Y-93490502D02*
G01*
X161397128Y-93506794D01*
X164853261Y-96915904D01*
X164858746Y-96921891D01*
X164862000Y-96927018D01*
X164867781Y-96932447D01*
X164867782Y-96932448D01*
X164913545Y-96975423D01*
X164915771Y-96977566D01*
X164934677Y-96996213D01*
X164934681Y-96996217D01*
X164937502Y-96998999D01*
X164940643Y-97001402D01*
X164943636Y-97004004D01*
X164943585Y-97004063D01*
X164948350Y-97008106D01*
X164978679Y-97036586D01*
X164985624Y-97040404D01*
X164998724Y-97047606D01*
X165014564Y-97057932D01*
X165032732Y-97071827D01*
X165040026Y-97074924D01*
X165071022Y-97088086D01*
X165082474Y-97093648D01*
X165111989Y-97109874D01*
X165111992Y-97109875D01*
X165118940Y-97113695D01*
X165126621Y-97115667D01*
X165126623Y-97115668D01*
X165141096Y-97119384D01*
X165159002Y-97125446D01*
X165180059Y-97134387D01*
X165220316Y-97140480D01*
X165221193Y-97140613D01*
X165233672Y-97143153D01*
X165266293Y-97151529D01*
X165266295Y-97151529D01*
X165273970Y-97153500D01*
X165296843Y-97153500D01*
X165315700Y-97154919D01*
X165330477Y-97157156D01*
X165330480Y-97157156D01*
X165338315Y-97158342D01*
X165379710Y-97154143D01*
X165392426Y-97153500D01*
X167634274Y-97153500D01*
X167702395Y-97173502D01*
X167741707Y-97213665D01*
X167809987Y-97325088D01*
X167956250Y-97493938D01*
X168128126Y-97636632D01*
X168198595Y-97677811D01*
X168201445Y-97679476D01*
X168250169Y-97731114D01*
X168263240Y-97800897D01*
X168236509Y-97866669D01*
X168196055Y-97900027D01*
X168183607Y-97906507D01*
X168179474Y-97909610D01*
X168179471Y-97909612D01*
X168155247Y-97927800D01*
X168004965Y-98040635D01*
X167850629Y-98202138D01*
X167847715Y-98206410D01*
X167823092Y-98242505D01*
X167768180Y-98287507D01*
X167719004Y-98297500D01*
X159372028Y-98297500D01*
X159303907Y-98277498D01*
X159282933Y-98260595D01*
X157898405Y-96876067D01*
X157864379Y-96813755D01*
X157861500Y-96786972D01*
X157861500Y-95189677D01*
X157868518Y-95165777D01*
X158944777Y-95165777D01*
X158954074Y-95177793D01*
X158997069Y-95207898D01*
X159006555Y-95213376D01*
X159197993Y-95302645D01*
X159208285Y-95306391D01*
X159412309Y-95361059D01*
X159423104Y-95362962D01*
X159633525Y-95381372D01*
X159644475Y-95381372D01*
X159854896Y-95362962D01*
X159865691Y-95361059D01*
X160069715Y-95306391D01*
X160080007Y-95302645D01*
X160271445Y-95213376D01*
X160280931Y-95207898D01*
X160324764Y-95177207D01*
X160333139Y-95166729D01*
X160326071Y-95153281D01*
X159651812Y-94479022D01*
X159637868Y-94471408D01*
X159636035Y-94471539D01*
X159629420Y-94475790D01*
X158951207Y-95154003D01*
X158944777Y-95165777D01*
X157868518Y-95165777D01*
X157881502Y-95121556D01*
X157910584Y-95091298D01*
X157910057Y-95090671D01*
X157914270Y-95087136D01*
X157918781Y-95083977D01*
X158075977Y-94926781D01*
X158120295Y-94863489D01*
X158200331Y-94749185D01*
X158200332Y-94749183D01*
X158203488Y-94744676D01*
X158205811Y-94739694D01*
X158205814Y-94739689D01*
X158255081Y-94634035D01*
X158301999Y-94580750D01*
X158370276Y-94561289D01*
X158438236Y-94581831D01*
X158483471Y-94634035D01*
X158532623Y-94739441D01*
X158538103Y-94748932D01*
X158568794Y-94792765D01*
X158579271Y-94801140D01*
X158592718Y-94794072D01*
X159549905Y-93836885D01*
X159612217Y-93802859D01*
X159683032Y-93807924D01*
X159728095Y-93836885D01*
X160686003Y-94794793D01*
X160697777Y-94801223D01*
X160709793Y-94791926D01*
X160739897Y-94748932D01*
X160745377Y-94739441D01*
X160834645Y-94548007D01*
X160838391Y-94537715D01*
X160893059Y-94333691D01*
X160894962Y-94322896D01*
X160913372Y-94112475D01*
X160913372Y-94101525D01*
X160894962Y-93891104D01*
X160893059Y-93880309D01*
X160838391Y-93676285D01*
X160834645Y-93665992D01*
X160827070Y-93649748D01*
X160816410Y-93579556D01*
X160845391Y-93514744D01*
X160904811Y-93475889D01*
X160941266Y-93470500D01*
X161308647Y-93470500D01*
X161376768Y-93490502D01*
G37*
%TD.AperFunction*%
%TD*%
M02*
